{
    "asset" : {
        "generator" : "Khronos glTF Blender I/O v1.2.75",
        "version" : "2.0"
    },
    "scene" : 0,
    "scenes" : [
        {
            "name" : "Scene",
            "nodes" : [
                0,
                1,
                2,
                3,
                4,
                5
            ]
        }
    ],
    "nodes" : [
        {
            "name" : "Light.001",
            "rotation" : [
                0.16907575726509094,
                0.7558803558349609,
                -0.27217137813568115,
                0.570947527885437
            ],
            "scale" : [
                3.000000238418579,
                3,
                3.000000238418579
            ],
            "translation" : [
                12.236201286315918,
                19.638099670410156,
                -3.166386604309082
            ]
        },
        {
            "mesh" : 0,
            "name" : "armadillo",
            "scale" : [
                3,
                3,
                3
            ],
            "translation" : [
                0.007465720176696777,
                0.9178539514541626,
                0.4249933958053589
            ]
        },
        {
            "mesh" : 1,
            "name" : "teapot",
            "scale" : [
                3,
                3,
                3
            ],
            "translation" : [
                -0.10242068767547607,
                -0.013884782791137695,
                2.124532461166382
            ]
        },
        {
            "mesh" : 2,
            "name" : "bunny",
            "scale" : [
                3,
                3,
                3
            ],
            "translation" : [
                -2.0814971923828125,
                -0.034491777420043945,
                1.2786253690719604
            ]
        },
        {
            "mesh" : 3,
            "name" : "dragon",
            "scale" : [
                3,
                3,
                3
            ],
            "translation" : [
                2.23437762260437,
                -0.016077756881713867,
                0.3177539110183716
            ]
        },
        {
            "mesh" : 4,
            "name" : "hammer",
            "rotation" : [
                0.23971877992153168,
                -0.3199807405471802,
                -0.41314569115638733,
                0.8182040452957153
            ],
            "scale" : [
                3,
                3.000000238418579,
                3.0000007152557373
            ],
            "translation" : [
                1.8860135078430176,
                3.475924491882324,
                -0.3044074773788452
            ]
        }
    ],
    "materials" : [
        {
            "doubleSided" : true,
            "emissiveFactor" : [
                0,
                0,
                0
            ],
            "name" : "White",
            "pbrMetallicRoughness" : {
                "baseColorFactor" : [
                    0.5377048850059509,
                    0.5377048850059509,
                    0.5377048850059509,
                    1
                ],
                "metallicFactor" : 0,
                "roughnessFactor" : 0.5
            }
        },
        {
            "doubleSided" : true,
            "emissiveFactor" : [
                0,
                0,
                0
            ],
            "name" : "Black",
            "pbrMetallicRoughness" : {
                "baseColorFactor" : [
                    0.018920570611953735,
                    0.018920570611953735,
                    0.018920570611953735,
                    1
                ],
                "metallicFactor" : 0,
                "roughnessFactor" : 0.5
            }
        },
        {
            "doubleSided" : true,
            "emissiveFactor" : [
                0,
                0,
                0
            ],
            "name" : "White_003",
            "pbrMetallicRoughness" : {
                "baseColorFactor" : [
                    0.5377048850059509,
                    0.5377048850059509,
                    0.5377048850059509,
                    1
                ],
                "metallicFactor" : 0,
                "roughnessFactor" : 0.5
            }
        },
        {
            "doubleSided" : true,
            "emissiveFactor" : [
                0,
                0,
                0
            ],
            "name" : "Black_003",
            "pbrMetallicRoughness" : {
                "baseColorFactor" : [
                    0.018920570611953735,
                    0.018920570611953735,
                    0.018920570611953735,
                    1
                ],
                "metallicFactor" : 0,
                "roughnessFactor" : 0.5
            }
        },
        {
            "doubleSided" : true,
            "emissiveFactor" : [
                0,
                0,
                0
            ],
            "name" : "Logo_003",
            "pbrMetallicRoughness" : {
                "baseColorFactor" : [
                    0.8000001311302185,
                    0.003758177859708667,
                    0.006105868611484766,
                    1
                ],
                "metallicFactor" : 0,
                "roughnessFactor" : 0.5
            }
        },
        {
            "doubleSided" : true,
            "emissiveFactor" : [
                0,
                0,
                0
            ],
            "name" : "White_002",
            "pbrMetallicRoughness" : {
                "baseColorFactor" : [
                    0.5377048850059509,
                    0.5377048850059509,
                    0.5377048850059509,
                    1
                ],
                "metallicFactor" : 0,
                "roughnessFactor" : 0.5
            }
        },
        {
            "doubleSided" : true,
            "emissiveFactor" : [
                0,
                0,
                0
            ],
            "name" : "Black_002",
            "pbrMetallicRoughness" : {
                "baseColorFactor" : [
                    0.018920570611953735,
                    0.018920570611953735,
                    0.018920570611953735,
                    1
                ],
                "metallicFactor" : 0,
                "roughnessFactor" : 0.5
            }
        },
        {
            "doubleSided" : true,
            "emissiveFactor" : [
                0,
                0,
                0
            ],
            "name" : "White_001",
            "pbrMetallicRoughness" : {
                "baseColorFactor" : [
                    0.5377048850059509,
                    0.5377048850059509,
                    0.5377048850059509,
                    1
                ],
                "metallicFactor" : 0,
                "roughnessFactor" : 0.5
            }
        },
        {
            "doubleSided" : true,
            "emissiveFactor" : [
                0,
                0,
                0
            ],
            "name" : "Logo_001",
            "pbrMetallicRoughness" : {
                "baseColorFactor" : [
                    0.8000001311302185,
                    0.003758177859708667,
                    0.006105868611484766,
                    1
                ],
                "metallicFactor" : 0,
                "roughnessFactor" : 0.5
            }
        },
        {
            "doubleSided" : true,
            "emissiveFactor" : [
                0,
                0,
                0
            ],
            "name" : "Black_001",
            "pbrMetallicRoughness" : {
                "baseColorFactor" : [
                    0.018920570611953735,
                    0.018920570611953735,
                    0.018920570611953735,
                    1
                ],
                "metallicFactor" : 0,
                "roughnessFactor" : 0.5
            }
        }
    ],
    "meshes" : [
        {
            "name" : "armadillo",
            "primitives" : [
                {
                    "attributes" : {
                        "POSITION" : 0,
                        "NORMAL" : 1
                    },
                    "indices" : 2,
                    "material" : 0
                },
                {
                    "attributes" : {
                        "POSITION" : 3,
                        "NORMAL" : 4
                    },
                    "indices" : 5,
                    "material" : 1
                }
            ]
        },
        {
            "name" : "teapot",
            "primitives" : [
                {
                    "attributes" : {
                        "POSITION" : 6,
                        "NORMAL" : 7
                    },
                    "indices" : 8,
                    "material" : 2
                },
                {
                    "attributes" : {
                        "POSITION" : 9,
                        "NORMAL" : 10
                    },
                    "indices" : 11,
                    "material" : 3
                },
                {
                    "attributes" : {
                        "POSITION" : 12,
                        "NORMAL" : 13
                    },
                    "indices" : 14,
                    "material" : 4
                }
            ]
        },
        {
            "name" : "bunny",
            "primitives" : [
                {
                    "attributes" : {
                        "POSITION" : 15,
                        "NORMAL" : 16
                    },
                    "indices" : 17,
                    "material" : 5
                },
                {
                    "attributes" : {
                        "POSITION" : 18,
                        "NORMAL" : 19
                    },
                    "indices" : 20,
                    "material" : 6
                }
            ]
        },
        {
            "name" : "dragon",
            "primitives" : [
                {
                    "attributes" : {
                        "POSITION" : 21,
                        "NORMAL" : 22
                    },
                    "indices" : 23,
                    "material" : 7
                },
                {
                    "attributes" : {
                        "POSITION" : 24,
                        "NORMAL" : 25
                    },
                    "indices" : 26,
                    "material" : 8
                },
                {
                    "attributes" : {
                        "POSITION" : 27,
                        "NORMAL" : 28
                    },
                    "indices" : 29,
                    "material" : 9
                }
            ]
        },
        {
            "name" : "hammer",
            "primitives" : [
                {
                    "attributes" : {
                        "POSITION" : 30,
                        "NORMAL" : 31
                    },
                    "indices" : 32,
                    "material" : 0
                }
            ]
        }
    ],
    "accessors" : [
        {
            "bufferView" : 0,
            "componentType" : 5126,
            "count" : 12509,
            "max" : [
                0.7240248322486877,
                1.389646053314209,
                0.7262786030769348
            ],
            "min" : [
                -0.8003504276275635,
                -0.45063719153404236,
                -0.7333633303642273
            ],
            "type" : "VEC3"
        },
        {
            "bufferView" : 1,
            "componentType" : 5126,
            "count" : 12509,
            "type" : "VEC3"
        },
        {
            "bufferView" : 2,
            "componentType" : 5123,
            "count" : 74952,
            "type" : "SCALAR"
        },
        {
            "bufferView" : 3,
            "componentType" : 5126,
            "count" : 33,
            "max" : [
                -0.12781019508838654,
                1.0222890377044678,
                0.48142391443252563
            ],
            "min" : [
                -0.3490920066833496,
                0.9078859686851501,
                0.3997887074947357
            ],
            "type" : "VEC3"
        },
        {
            "bufferView" : 4,
            "componentType" : 5126,
            "count" : 33,
            "type" : "VEC3"
        },
        {
            "bufferView" : 5,
            "componentType" : 5123,
            "count" : 99,
            "type" : "SCALAR"
        },
        {
            "bufferView" : 6,
            "componentType" : 5126,
            "count" : 999,
            "max" : [
                0.4308719038963318,
                0.4198138117790222,
                0.26631709933280945
            ],
            "min" : [
                -0.3892483115196228,
                0,
                -0.2663171887397766
            ],
            "type" : "VEC3"
        },
        {
            "bufferView" : 7,
            "componentType" : 5126,
            "count" : 999,
            "type" : "VEC3"
        },
        {
            "bufferView" : 8,
            "componentType" : 5123,
            "count" : 5586,
            "type" : "SCALAR"
        },
        {
            "bufferView" : 9,
            "componentType" : 5126,
            "count" : 26,
            "max" : [
                0.09832417219877243,
                0.28515520691871643,
                0.23438610136508942
            ],
            "min" : [
                -0.01920890063047409,
                0.23825210332870483,
                0.20474420487880707
            ],
            "type" : "VEC3"
        },
        {
            "bufferView" : 10,
            "componentType" : 5126,
            "count" : 26,
            "type" : "VEC3"
        },
        {
            "bufferView" : 11,
            "componentType" : 5123,
            "count" : 99,
            "type" : "SCALAR"
        },
        {
            "bufferView" : 12,
            "componentType" : 5126,
            "count" : 9,
            "max" : [
                0.07910721749067307,
                0.26835399866104126,
                0.22037160396575928
            ],
            "min" : [
                0.02301168069243431,
                0.24137470126152039,
                0.20474420487880707
            ],
            "type" : "VEC3"
        },
        {
            "bufferView" : 13,
            "componentType" : 5126,
            "count" : 9,
            "type" : "VEC3"
        },
        {
            "bufferView" : 14,
            "componentType" : 5123,
            "count" : 15,
            "type" : "SCALAR"
        },
        {
            "bufferView" : 15,
            "componentType" : 5126,
            "count" : 5945,
            "max" : [
                0.34657880663871765,
                1.0191110372543335,
                0.38235920667648315
            ],
            "min" : [
                -0.566736102104187,
                -0.006400822661817074,
                -0.28921279311180115
            ],
            "type" : "VEC3"
        },
        {
            "bufferView" : 16,
            "componentType" : 5126,
            "count" : 5945,
            "type" : "VEC3"
        },
        {
            "bufferView" : 17,
            "componentType" : 5123,
            "count" : 35499,
            "type" : "SCALAR"
        },
        {
            "bufferView" : 18,
            "componentType" : 5126,
            "count" : 78,
            "max" : [
                -0.08174598217010498,
                0.568953812122345,
                0.3029775023460388
            ],
            "min" : [
                -0.31640541553497314,
                0.4290561079978943,
                0.17943710088729858
            ],
            "type" : "VEC3"
        },
        {
            "bufferView" : 19,
            "componentType" : 5126,
            "count" : 78,
            "type" : "VEC3"
        },
        {
            "bufferView" : 20,
            "componentType" : 5123,
            "count" : 309,
            "type" : "SCALAR"
        },
        {
            "bufferView" : 21,
            "componentType" : 5126,
            "count" : 7196,
            "max" : [
                0.3652622103691101,
                0.9451335072517395,
                0.8132569193840027
            ],
            "min" : [
                -0.37023189663887024,
                -0.020611699670553207,
                -0.628878116607666
            ],
            "type" : "VEC3"
        },
        {
            "bufferView" : 22,
            "componentType" : 5126,
            "count" : 7196,
            "type" : "VEC3"
        },
        {
            "bufferView" : 23,
            "componentType" : 5123,
            "count" : 43122,
            "type" : "SCALAR"
        },
        {
            "bufferView" : 24,
            "componentType" : 5126,
            "count" : 12,
            "max" : [
                0.014758400619029999,
                0.7589520215988159,
                0.5276052355766296
            ],
            "min" : [
                -0.1000152975320816,
                0.734105110168457,
                0.4183596074581146
            ],
            "type" : "VEC3"
        },
        {
            "bufferView" : 25,
            "componentType" : 5126,
            "count" : 12,
            "type" : "VEC3"
        },
        {
            "bufferView" : 26,
            "componentType" : 5123,
            "count" : 30,
            "type" : "SCALAR"
        },
        {
            "bufferView" : 27,
            "componentType" : 5126,
            "count" : 12,
            "max" : [
                -0.023807639256119728,
                0.7527257204055786,
                0.5099375247955322
            ],
            "min" : [
                -0.1000152975320816,
                0.7271438837051392,
                0.4183596074581146
            ],
            "type" : "VEC3"
        },
        {
            "bufferView" : 28,
            "componentType" : 5126,
            "count" : 12,
            "type" : "VEC3"
        },
        {
            "bufferView" : 29,
            "componentType" : 5123,
            "count" : 30,
            "type" : "SCALAR"
        },
        {
            "bufferView" : 30,
            "componentType" : 5126,
            "count" : 924,
            "max" : [
                0.25839489698410034,
                0.5970577001571655,
                0.12450840324163437
            ],
            "min" : [
                -0.24903050065040588,
                -0.5599457025527954,
                -0.13377760350704193
            ],
            "type" : "VEC3"
        },
        {
            "bufferView" : 31,
            "componentType" : 5126,
            "count" : 924,
            "type" : "VEC3"
        },
        {
            "bufferView" : 32,
            "componentType" : 5123,
            "count" : 972,
            "type" : "SCALAR"
        }
    ],
    "bufferViews" : [
        {
            "buffer" : 0,
            "byteLength" : 150108,
            "byteOffset" : 0
        },
        {
            "buffer" : 0,
            "byteLength" : 150108,
            "byteOffset" : 150108
        },
        {
            "buffer" : 0,
            "byteLength" : 149904,
            "byteOffset" : 300216
        },
        {
            "buffer" : 0,
            "byteLength" : 396,
            "byteOffset" : 450120
        },
        {
            "buffer" : 0,
            "byteLength" : 396,
            "byteOffset" : 450516
        },
        {
            "buffer" : 0,
            "byteLength" : 198,
            "byteOffset" : 450912
        },
        {
            "buffer" : 0,
            "byteLength" : 11988,
            "byteOffset" : 451112
        },
        {
            "buffer" : 0,
            "byteLength" : 11988,
            "byteOffset" : 463100
        },
        {
            "buffer" : 0,
            "byteLength" : 11172,
            "byteOffset" : 475088
        },
        {
            "buffer" : 0,
            "byteLength" : 312,
            "byteOffset" : 486260
        },
        {
            "buffer" : 0,
            "byteLength" : 312,
            "byteOffset" : 486572
        },
        {
            "buffer" : 0,
            "byteLength" : 198,
            "byteOffset" : 486884
        },
        {
            "buffer" : 0,
            "byteLength" : 108,
            "byteOffset" : 487084
        },
        {
            "buffer" : 0,
            "byteLength" : 108,
            "byteOffset" : 487192
        },
        {
            "buffer" : 0,
            "byteLength" : 30,
            "byteOffset" : 487300
        },
        {
            "buffer" : 0,
            "byteLength" : 71340,
            "byteOffset" : 487332
        },
        {
            "buffer" : 0,
            "byteLength" : 71340,
            "byteOffset" : 558672
        },
        {
            "buffer" : 0,
            "byteLength" : 70998,
            "byteOffset" : 630012
        },
        {
            "buffer" : 0,
            "byteLength" : 936,
            "byteOffset" : 701012
        },
        {
            "buffer" : 0,
            "byteLength" : 936,
            "byteOffset" : 701948
        },
        {
            "buffer" : 0,
            "byteLength" : 618,
            "byteOffset" : 702884
        },
        {
            "buffer" : 0,
            "byteLength" : 86352,
            "byteOffset" : 703504
        },
        {
            "buffer" : 0,
            "byteLength" : 86352,
            "byteOffset" : 789856
        },
        {
            "buffer" : 0,
            "byteLength" : 86244,
            "byteOffset" : 876208
        },
        {
            "buffer" : 0,
            "byteLength" : 144,
            "byteOffset" : 962452
        },
        {
            "buffer" : 0,
            "byteLength" : 144,
            "byteOffset" : 962596
        },
        {
            "buffer" : 0,
            "byteLength" : 60,
            "byteOffset" : 962740
        },
        {
            "buffer" : 0,
            "byteLength" : 144,
            "byteOffset" : 962800
        },
        {
            "buffer" : 0,
            "byteLength" : 144,
            "byteOffset" : 962944
        },
        {
            "buffer" : 0,
            "byteLength" : 60,
            "byteOffset" : 963088
        },
        {
            "buffer" : 0,
            "byteLength" : 11088,
            "byteOffset" : 963148
        },
        {
            "buffer" : 0,
            "byteLength" : 11088,
            "byteOffset" : 974236
        },
        {
            "buffer" : 0,
            "byteLength" : 1944,
            "byteOffset" : 985324
        }
    ],
    "buffers" : [
        {
            "byteLength" : 987268,
            "uri" : "data:application/octet-stream;base64,"
        }
    ]
}
